<mxfile host="app.diagrams.net" modified="2022-07-22T04:18:20.237Z" agent="5.0 (Windows NT 10.0; Win64; x64) AppleWebKit/537.36 (KHTML, like Gecko) Chrome/103.0.0.0 Safari/537.36" etag="u0Qzrh0-Jh0lSjZFdg9J" version="20.1.1" type="github">
  <diagram id="cSIMa4QUHb6lEiOD89_U" name="Page-1">
    <mxGraphModel dx="2714" dy="2231" grid="1" gridSize="10" guides="1" tooltips="1" connect="1" arrows="1" fold="1" page="1" pageScale="1" pageWidth="827" pageHeight="1169" math="0" shadow="0">
      <root>
        <mxCell id="0" />
        <mxCell id="1" parent="0" />
        <mxCell id="EJ1EdjsebkWO272Hhb9x-1" value="Player" style="swimlane;fontStyle=0;childLayout=stackLayout;horizontal=1;startSize=26;fillColor=none;horizontalStack=0;resizeParent=1;resizeParentMax=0;resizeLast=0;collapsible=1;marginBottom=0;" parent="1" vertex="1">
          <mxGeometry x="-270" y="-233" width="140" height="52" as="geometry" />
        </mxCell>
        <mxCell id="ngEIwyH2J2gvdWESKETZ-68" value="updateEnergy(Int) : Bool" style="text;strokeColor=default;fillColor=none;align=left;verticalAlign=top;spacingLeft=4;spacingRight=4;overflow=hidden;rotatable=0;points=[[0,0.5],[1,0.5]];portConstraint=eastwest;" vertex="1" parent="EJ1EdjsebkWO272Hhb9x-1">
          <mxGeometry y="26" width="140" height="26" as="geometry" />
        </mxCell>
        <mxCell id="EJ1EdjsebkWO272Hhb9x-5" value="Character" style="swimlane;fontStyle=0;childLayout=stackLayout;horizontal=1;startSize=26;fillColor=none;horizontalStack=0;resizeParent=1;resizeParentMax=0;resizeLast=0;collapsible=1;marginBottom=0;" parent="1" vertex="1">
          <mxGeometry x="-190" y="-760" width="230" height="430" as="geometry" />
        </mxCell>
        <mxCell id="EJ1EdjsebkWO272Hhb9x-7" value="Name: String" style="text;strokeColor=none;fillColor=none;align=left;verticalAlign=top;spacingLeft=4;spacingRight=4;overflow=hidden;rotatable=0;points=[[0,0.5],[1,0.5]];portConstraint=eastwest;" parent="EJ1EdjsebkWO272Hhb9x-5" vertex="1">
          <mxGeometry y="26" width="230" height="26" as="geometry" />
        </mxCell>
        <mxCell id="EJ1EdjsebkWO272Hhb9x-6" value="Health: Int" style="text;strokeColor=none;fillColor=none;align=left;verticalAlign=top;spacingLeft=4;spacingRight=4;overflow=hidden;rotatable=0;points=[[0,0.5],[1,0.5]];portConstraint=eastwest;" parent="EJ1EdjsebkWO272Hhb9x-5" vertex="1">
          <mxGeometry y="52" width="230" height="26" as="geometry" />
        </mxCell>
        <mxCell id="EJ1EdjsebkWO272Hhb9x-19" value="Hand: ActionCard*" style="text;strokeColor=none;fillColor=none;align=left;verticalAlign=top;spacingLeft=4;spacingRight=4;overflow=hidden;rotatable=0;points=[[0,0.5],[1,0.5]];portConstraint=eastwest;" parent="EJ1EdjsebkWO272Hhb9x-5" vertex="1">
          <mxGeometry y="78" width="230" height="26" as="geometry" />
        </mxCell>
        <mxCell id="EJ1EdjsebkWO272Hhb9x-2" value="Energy: Int" style="text;strokeColor=none;fillColor=none;align=left;verticalAlign=top;spacingLeft=4;spacingRight=4;overflow=hidden;rotatable=0;points=[[0,0.5],[1,0.5]];portConstraint=eastwest;" parent="EJ1EdjsebkWO272Hhb9x-5" vertex="1">
          <mxGeometry y="104" width="230" height="26" as="geometry" />
        </mxCell>
        <mxCell id="EJ1EdjsebkWO272Hhb9x-36" value="Strength: Int " style="text;strokeColor=none;fillColor=none;align=left;verticalAlign=top;spacingLeft=4;spacingRight=4;overflow=hidden;rotatable=0;points=[[0,0.5],[1,0.5]];portConstraint=eastwest;" parent="EJ1EdjsebkWO272Hhb9x-5" vertex="1">
          <mxGeometry y="130" width="230" height="28" as="geometry" />
        </mxCell>
        <mxCell id="EJ1EdjsebkWO272Hhb9x-8" value="Deck: Deck" style="text;strokeColor=none;fillColor=none;align=left;verticalAlign=top;spacingLeft=4;spacingRight=4;overflow=hidden;rotatable=0;points=[[0,0.5],[1,0.5]];portConstraint=eastwest;" parent="EJ1EdjsebkWO272Hhb9x-5" vertex="1">
          <mxGeometry y="158" width="230" height="26" as="geometry" />
        </mxCell>
        <mxCell id="EJ1EdjsebkWO272Hhb9x-20" value="State: State" style="text;strokeColor=none;fillColor=none;align=left;verticalAlign=top;spacingLeft=4;spacingRight=4;overflow=hidden;rotatable=0;points=[[0,0.5],[1,0.5]];portConstraint=eastwest;" parent="EJ1EdjsebkWO272Hhb9x-5" vertex="1">
          <mxGeometry y="184" width="230" height="30" as="geometry" />
        </mxCell>
        <mxCell id="EJ1EdjsebkWO272Hhb9x-25" value="" style="line;strokeWidth=1;fillColor=none;align=left;verticalAlign=middle;spacingTop=-1;spacingLeft=3;spacingRight=3;rotatable=0;labelPosition=right;points=[];portConstraint=eastwest;" parent="EJ1EdjsebkWO272Hhb9x-5" vertex="1">
          <mxGeometry y="214" width="230" height="8" as="geometry" />
        </mxCell>
        <mxCell id="EJ1EdjsebkWO272Hhb9x-24" value="update(ActionCard, Character)" style="text;strokeColor=none;fillColor=none;align=left;verticalAlign=top;spacingLeft=4;spacingRight=4;overflow=hidden;rotatable=0;points=[[0,0.5],[1,0.5]];portConstraint=eastwest;" parent="EJ1EdjsebkWO272Hhb9x-5" vertex="1">
          <mxGeometry y="222" width="230" height="26" as="geometry" />
        </mxCell>
        <mxCell id="EJ1EdjsebkWO272Hhb9x-26" value="drawCard()" style="text;strokeColor=none;fillColor=none;align=left;verticalAlign=top;spacingLeft=4;spacingRight=4;overflow=hidden;rotatable=0;points=[[0,0.5],[1,0.5]];portConstraint=eastwest;" parent="EJ1EdjsebkWO272Hhb9x-5" vertex="1">
          <mxGeometry y="248" width="230" height="26" as="geometry" />
        </mxCell>
        <mxCell id="EJ1EdjsebkWO272Hhb9x-27" value="updateState(State)" style="text;strokeColor=none;fillColor=none;align=left;verticalAlign=top;spacingLeft=4;spacingRight=4;overflow=hidden;rotatable=0;points=[[0,0.5],[1,0.5]];portConstraint=eastwest;" parent="EJ1EdjsebkWO272Hhb9x-5" vertex="1">
          <mxGeometry y="274" width="230" height="26" as="geometry" />
        </mxCell>
        <mxCell id="EJ1EdjsebkWO272Hhb9x-34" value="updateHealth(Int)" style="text;strokeColor=none;fillColor=none;align=left;verticalAlign=top;spacingLeft=4;spacingRight=4;overflow=hidden;rotatable=0;points=[[0,0.5],[1,0.5]];portConstraint=eastwest;" parent="EJ1EdjsebkWO272Hhb9x-5" vertex="1">
          <mxGeometry y="300" width="230" height="26" as="geometry" />
        </mxCell>
        <mxCell id="ngEIwyH2J2gvdWESKETZ-41" value="preRound() " style="text;strokeColor=none;fillColor=none;align=left;verticalAlign=top;spacingLeft=4;spacingRight=4;overflow=hidden;rotatable=0;points=[[0,0.5],[1,0.5]];portConstraint=eastwest;" vertex="1" parent="EJ1EdjsebkWO272Hhb9x-5">
          <mxGeometry y="326" width="230" height="26" as="geometry" />
        </mxCell>
        <mxCell id="ngEIwyH2J2gvdWESKETZ-42" value="postRound() " style="text;strokeColor=none;fillColor=none;align=left;verticalAlign=top;spacingLeft=4;spacingRight=4;overflow=hidden;rotatable=0;points=[[0,0.5],[1,0.5]];portConstraint=eastwest;" vertex="1" parent="EJ1EdjsebkWO272Hhb9x-5">
          <mxGeometry y="352" width="230" height="26" as="geometry" />
        </mxCell>
        <mxCell id="EJ1EdjsebkWO272Hhb9x-42" value="endRound() " style="text;strokeColor=none;fillColor=none;align=left;verticalAlign=top;spacingLeft=4;spacingRight=4;overflow=hidden;rotatable=0;points=[[0,0.5],[1,0.5]];portConstraint=eastwest;" parent="EJ1EdjsebkWO272Hhb9x-5" vertex="1">
          <mxGeometry y="378" width="230" height="26" as="geometry" />
        </mxCell>
        <mxCell id="EJ1EdjsebkWO272Hhb9x-41" value="isDead() : Bool" style="text;strokeColor=none;fillColor=none;align=left;verticalAlign=top;spacingLeft=4;spacingRight=4;overflow=hidden;rotatable=0;points=[[0,0.5],[1,0.5]];portConstraint=eastwest;" parent="EJ1EdjsebkWO272Hhb9x-5" vertex="1">
          <mxGeometry y="404" width="230" height="26" as="geometry" />
        </mxCell>
        <mxCell id="EJ1EdjsebkWO272Hhb9x-14" value="Enemy" style="swimlane;fontStyle=0;childLayout=stackLayout;horizontal=1;startSize=26;fillColor=none;horizontalStack=0;resizeParent=1;resizeParentMax=0;resizeLast=0;collapsible=1;marginBottom=0;" parent="1" vertex="1">
          <mxGeometry x="-60" y="-233" width="140" height="52" as="geometry" />
        </mxCell>
        <mxCell id="ngEIwyH2J2gvdWESKETZ-70" value="updateEnergy(Int) : Bool" style="text;strokeColor=default;fillColor=none;align=left;verticalAlign=top;spacingLeft=4;spacingRight=4;overflow=hidden;rotatable=0;points=[[0,0.5],[1,0.5]];portConstraint=eastwest;" vertex="1" parent="EJ1EdjsebkWO272Hhb9x-14">
          <mxGeometry y="26" width="140" height="26" as="geometry" />
        </mxCell>
        <mxCell id="EJ1EdjsebkWO272Hhb9x-46" value="Card" style="swimlane;fontStyle=0;childLayout=stackLayout;horizontal=1;startSize=26;fillColor=none;horizontalStack=0;resizeParent=1;resizeParentMax=0;resizeLast=0;collapsible=1;marginBottom=0;" parent="1" vertex="1">
          <mxGeometry x="330" y="-760" width="140" height="170" as="geometry" />
        </mxCell>
        <mxCell id="EJ1EdjsebkWO272Hhb9x-47" value="Name: String" style="text;strokeColor=none;fillColor=none;align=left;verticalAlign=top;spacingLeft=4;spacingRight=4;overflow=hidden;rotatable=0;points=[[0,0.5],[1,0.5]];portConstraint=eastwest;" parent="EJ1EdjsebkWO272Hhb9x-46" vertex="1">
          <mxGeometry y="26" width="140" height="26" as="geometry" />
        </mxCell>
        <mxCell id="EJ1EdjsebkWO272Hhb9x-48" value="Image: Image*" style="text;strokeColor=none;fillColor=none;align=left;verticalAlign=top;spacingLeft=4;spacingRight=4;overflow=hidden;rotatable=0;points=[[0,0.5],[1,0.5]];portConstraint=eastwest;" parent="EJ1EdjsebkWO272Hhb9x-46" vertex="1">
          <mxGeometry y="52" width="140" height="26" as="geometry" />
        </mxCell>
        <mxCell id="ngEIwyH2J2gvdWESKETZ-14" value="Usage: String" style="text;strokeColor=none;fillColor=none;align=left;verticalAlign=top;spacingLeft=4;spacingRight=4;overflow=hidden;rotatable=0;points=[[0,0.5],[1,0.5]];portConstraint=eastwest;" vertex="1" parent="EJ1EdjsebkWO272Hhb9x-46">
          <mxGeometry y="78" width="140" height="26" as="geometry" />
        </mxCell>
        <mxCell id="EJ1EdjsebkWO272Hhb9x-57" value="Count: Int" style="text;strokeColor=none;fillColor=none;align=left;verticalAlign=top;spacingLeft=4;spacingRight=4;overflow=hidden;rotatable=0;points=[[0,0.5],[1,0.5]];portConstraint=eastwest;" parent="EJ1EdjsebkWO272Hhb9x-46" vertex="1">
          <mxGeometry y="104" width="140" height="26" as="geometry" />
        </mxCell>
        <mxCell id="ngEIwyH2J2gvdWESKETZ-13" value="clone() : Card" style="text;strokeColor=default;fillColor=none;align=left;verticalAlign=top;spacingLeft=4;spacingRight=4;overflow=hidden;rotatable=0;points=[[0,0.5],[1,0.5]];portConstraint=eastwest;" vertex="1" parent="EJ1EdjsebkWO272Hhb9x-46">
          <mxGeometry y="130" width="140" height="40" as="geometry" />
        </mxCell>
        <mxCell id="ngEIwyH2J2gvdWESKETZ-30" style="edgeStyle=orthogonalEdgeStyle;rounded=0;orthogonalLoop=1;jettySize=auto;html=1;exitX=0.5;exitY=0;exitDx=0;exitDy=0;" edge="1" parent="1" source="EJ1EdjsebkWO272Hhb9x-60" target="EJ1EdjsebkWO272Hhb9x-46">
          <mxGeometry relative="1" as="geometry" />
        </mxCell>
        <mxCell id="EJ1EdjsebkWO272Hhb9x-60" value="ActionCard" style="swimlane;fontStyle=0;childLayout=stackLayout;horizontal=1;startSize=26;fillColor=none;horizontalStack=0;resizeParent=1;resizeParentMax=0;resizeLast=0;collapsible=1;marginBottom=0;" parent="1" vertex="1">
          <mxGeometry x="115" y="-509" width="180" height="130" as="geometry" />
        </mxCell>
        <mxCell id="EJ1EdjsebkWO272Hhb9x-49" value="EnergyCost: Int" style="text;strokeColor=none;fillColor=none;align=left;verticalAlign=top;spacingLeft=4;spacingRight=4;overflow=hidden;rotatable=0;points=[[0,0.5],[1,0.5]];portConstraint=eastwest;" parent="EJ1EdjsebkWO272Hhb9x-60" vertex="1">
          <mxGeometry y="26" width="180" height="26" as="geometry" />
        </mxCell>
        <mxCell id="EJ1EdjsebkWO272Hhb9x-95" value="StrengthCost: Int" style="text;strokeColor=none;fillColor=none;align=left;verticalAlign=top;spacingLeft=4;spacingRight=4;overflow=hidden;rotatable=0;points=[[0,0.5],[1,0.5]];portConstraint=eastwest;" parent="EJ1EdjsebkWO272Hhb9x-60" vertex="1">
          <mxGeometry y="52" width="180" height="26" as="geometry" />
        </mxCell>
        <mxCell id="EJ1EdjsebkWO272Hhb9x-56" value="Healthchange: Int" style="text;strokeColor=none;fillColor=none;align=left;verticalAlign=top;spacingLeft=4;spacingRight=4;overflow=hidden;rotatable=0;points=[[0,0.5],[1,0.5]];portConstraint=eastwest;" parent="EJ1EdjsebkWO272Hhb9x-60" vertex="1">
          <mxGeometry y="78" width="180" height="26" as="geometry" />
        </mxCell>
        <mxCell id="EJ1EdjsebkWO272Hhb9x-97" value="Effect: State*" style="text;strokeColor=none;fillColor=none;align=left;verticalAlign=top;spacingLeft=4;spacingRight=4;overflow=hidden;rotatable=0;points=[[0,0.5],[1,0.5]];portConstraint=eastwest;" parent="EJ1EdjsebkWO272Hhb9x-60" vertex="1">
          <mxGeometry y="104" width="180" height="26" as="geometry" />
        </mxCell>
        <mxCell id="EJ1EdjsebkWO272Hhb9x-73" value="Item_Card" style="swimlane;fontStyle=0;childLayout=stackLayout;horizontal=1;startSize=26;fillColor=none;horizontalStack=0;resizeParent=1;resizeParentMax=0;resizeLast=0;collapsible=1;marginBottom=0;" parent="1" vertex="1">
          <mxGeometry x="540" y="-100" width="140" height="86" as="geometry" />
        </mxCell>
        <mxCell id="EJ1EdjsebkWO272Hhb9x-75" value="Actions: Deck" style="text;strokeColor=none;fillColor=none;align=left;verticalAlign=top;spacingLeft=4;spacingRight=4;overflow=hidden;rotatable=0;points=[[0,0.5],[1,0.5]];portConstraint=eastwest;" parent="EJ1EdjsebkWO272Hhb9x-73" vertex="1">
          <mxGeometry y="26" width="140" height="26" as="geometry" />
        </mxCell>
        <mxCell id="EJ1EdjsebkWO272Hhb9x-76" value="" style="line;strokeWidth=1;fillColor=none;align=left;verticalAlign=middle;spacingTop=-1;spacingLeft=3;spacingRight=3;rotatable=0;labelPosition=right;points=[];portConstraint=eastwest;" parent="EJ1EdjsebkWO272Hhb9x-73" vertex="1">
          <mxGeometry y="52" width="140" height="8" as="geometry" />
        </mxCell>
        <mxCell id="EJ1EdjsebkWO272Hhb9x-77" value="addToDeck()" style="text;strokeColor=none;fillColor=none;align=left;verticalAlign=top;spacingLeft=4;spacingRight=4;overflow=hidden;rotatable=0;points=[[0,0.5],[1,0.5]];portConstraint=eastwest;" parent="EJ1EdjsebkWO272Hhb9x-73" vertex="1">
          <mxGeometry y="60" width="140" height="26" as="geometry" />
        </mxCell>
        <mxCell id="EJ1EdjsebkWO272Hhb9x-78" value="MaterialCard" style="swimlane;fontStyle=0;childLayout=stackLayout;horizontal=1;startSize=26;fillColor=none;horizontalStack=0;resizeParent=1;resizeParentMax=0;resizeLast=0;collapsible=1;marginBottom=0;" parent="1" vertex="1">
          <mxGeometry x="730" y="-100" width="140" height="52" as="geometry" />
        </mxCell>
        <mxCell id="EJ1EdjsebkWO272Hhb9x-79" value="level : Int" style="text;strokeColor=none;fillColor=none;align=left;verticalAlign=top;spacingLeft=4;spacingRight=4;overflow=hidden;rotatable=0;points=[[0,0.5],[1,0.5]];portConstraint=eastwest;" parent="EJ1EdjsebkWO272Hhb9x-78" vertex="1">
          <mxGeometry y="26" width="140" height="26" as="geometry" />
        </mxCell>
        <mxCell id="EJ1EdjsebkWO272Hhb9x-98" value="State" style="swimlane;fontStyle=0;childLayout=stackLayout;horizontal=1;startSize=26;fillColor=none;horizontalStack=0;resizeParent=1;resizeParentMax=0;resizeLast=0;collapsible=1;marginBottom=0;" parent="1" vertex="1">
          <mxGeometry x="-20" y="-160" width="260" height="294" as="geometry" />
        </mxCell>
        <mxCell id="EJ1EdjsebkWO272Hhb9x-101" value="Name: String" style="text;strokeColor=none;fillColor=none;align=left;verticalAlign=top;spacingLeft=4;spacingRight=4;overflow=hidden;rotatable=0;points=[[0,0.5],[1,0.5]];portConstraint=eastwest;" parent="EJ1EdjsebkWO272Hhb9x-98" vertex="1">
          <mxGeometry y="26" width="260" height="26" as="geometry" />
        </mxCell>
        <mxCell id="EJ1EdjsebkWO272Hhb9x-99" value="EffectiveRound: Int" style="text;strokeColor=none;fillColor=none;align=left;verticalAlign=top;spacingLeft=4;spacingRight=4;overflow=hidden;rotatable=0;points=[[0,0.5],[1,0.5]];portConstraint=eastwest;" parent="EJ1EdjsebkWO272Hhb9x-98" vertex="1">
          <mxGeometry y="52" width="260" height="26" as="geometry" />
        </mxCell>
        <mxCell id="EJ1EdjsebkWO272Hhb9x-105" value="Target: Character*" style="text;strokeColor=none;fillColor=none;align=left;verticalAlign=top;spacingLeft=4;spacingRight=4;overflow=hidden;rotatable=0;points=[[0,0.5],[1,0.5]];portConstraint=eastwest;" parent="EJ1EdjsebkWO272Hhb9x-98" vertex="1">
          <mxGeometry y="78" width="260" height="26" as="geometry" />
        </mxCell>
        <mxCell id="EJ1EdjsebkWO272Hhb9x-100" value="Damage: Int" style="text;strokeColor=none;fillColor=none;align=left;verticalAlign=top;spacingLeft=4;spacingRight=4;overflow=hidden;rotatable=0;points=[[0,0.5],[1,0.5]];portConstraint=eastwest;" parent="EJ1EdjsebkWO272Hhb9x-98" vertex="1">
          <mxGeometry y="104" width="260" height="26" as="geometry" />
        </mxCell>
        <mxCell id="EJ1EdjsebkWO272Hhb9x-106" value="EnergeEffect: Int" style="text;strokeColor=none;fillColor=none;align=left;verticalAlign=top;spacingLeft=4;spacingRight=4;overflow=hidden;rotatable=0;points=[[0,0.5],[1,0.5]];portConstraint=eastwest;" parent="EJ1EdjsebkWO272Hhb9x-98" vertex="1">
          <mxGeometry y="130" width="260" height="26" as="geometry" />
        </mxCell>
        <mxCell id="EJ1EdjsebkWO272Hhb9x-107" value="StrengthEffect: Int" style="text;strokeColor=none;fillColor=none;align=left;verticalAlign=top;spacingLeft=4;spacingRight=4;overflow=hidden;rotatable=0;points=[[0,0.5],[1,0.5]];portConstraint=eastwest;" parent="EJ1EdjsebkWO272Hhb9x-98" vertex="1">
          <mxGeometry y="156" width="260" height="26" as="geometry" />
        </mxCell>
        <mxCell id="ngEIwyH2J2gvdWESKETZ-34" value="moveProbablity : Int" style="text;strokeColor=none;fillColor=none;align=left;verticalAlign=top;spacingLeft=4;spacingRight=4;overflow=hidden;rotatable=0;points=[[0,0.5],[1,0.5]];portConstraint=eastwest;" vertex="1" parent="EJ1EdjsebkWO272Hhb9x-98">
          <mxGeometry y="182" width="260" height="26" as="geometry" />
        </mxCell>
        <mxCell id="EJ1EdjsebkWO272Hhb9x-104" value="description : String" style="text;strokeColor=none;fillColor=none;align=left;verticalAlign=top;spacingLeft=4;spacingRight=4;overflow=hidden;rotatable=0;points=[[0,0.5],[1,0.5]];portConstraint=eastwest;" parent="EJ1EdjsebkWO272Hhb9x-98" vertex="1">
          <mxGeometry y="208" width="260" height="26" as="geometry" />
        </mxCell>
        <mxCell id="ngEIwyH2J2gvdWESKETZ-33" value="moveProbablity : Int" style="text;strokeColor=none;fillColor=none;align=left;verticalAlign=top;spacingLeft=4;spacingRight=4;overflow=hidden;rotatable=0;points=[[0,0.5],[1,0.5]];portConstraint=eastwest;" vertex="1" parent="EJ1EdjsebkWO272Hhb9x-98">
          <mxGeometry y="234" width="260" height="26" as="geometry" />
        </mxCell>
        <mxCell id="EJ1EdjsebkWO272Hhb9x-102" value="" style="line;strokeWidth=1;fillColor=none;align=left;verticalAlign=middle;spacingTop=-1;spacingLeft=3;spacingRight=3;rotatable=0;labelPosition=right;points=[];portConstraint=eastwest;" parent="EJ1EdjsebkWO272Hhb9x-98" vertex="1">
          <mxGeometry y="260" width="260" height="8" as="geometry" />
        </mxCell>
        <mxCell id="EJ1EdjsebkWO272Hhb9x-103" value="+ apply(target: Character)" style="text;strokeColor=none;fillColor=none;align=left;verticalAlign=top;spacingLeft=4;spacingRight=4;overflow=hidden;rotatable=0;points=[[0,0.5],[1,0.5]];portConstraint=eastwest;fontStyle=0" parent="EJ1EdjsebkWO272Hhb9x-98" vertex="1">
          <mxGeometry y="268" width="260" height="26" as="geometry" />
        </mxCell>
        <mxCell id="ngEIwyH2J2gvdWESKETZ-28" style="edgeStyle=orthogonalEdgeStyle;rounded=0;orthogonalLoop=1;jettySize=auto;html=1;exitX=0.5;exitY=0;exitDx=0;exitDy=0;" edge="1" parent="1" source="ngEIwyH2J2gvdWESKETZ-6" target="EJ1EdjsebkWO272Hhb9x-46">
          <mxGeometry relative="1" as="geometry" />
        </mxCell>
        <mxCell id="ngEIwyH2J2gvdWESKETZ-6" value="MergableCard" style="swimlane;fontStyle=0;childLayout=stackLayout;horizontal=1;startSize=30;horizontalStack=0;resizeParent=1;resizeParentMax=0;resizeLast=0;collapsible=1;marginBottom=0;" vertex="1" parent="1">
          <mxGeometry x="660" y="-509" width="140" height="240" as="geometry" />
        </mxCell>
        <mxCell id="ngEIwyH2J2gvdWESKETZ-7" value="wood: Int" style="text;strokeColor=none;fillColor=none;align=left;verticalAlign=middle;spacingLeft=4;spacingRight=4;overflow=hidden;points=[[0,0.5],[1,0.5]];portConstraint=eastwest;rotatable=0;" vertex="1" parent="ngEIwyH2J2gvdWESKETZ-6">
          <mxGeometry y="30" width="140" height="30" as="geometry" />
        </mxCell>
        <mxCell id="ngEIwyH2J2gvdWESKETZ-8" value="fire: Int" style="text;strokeColor=none;fillColor=none;align=left;verticalAlign=middle;spacingLeft=4;spacingRight=4;overflow=hidden;points=[[0,0.5],[1,0.5]];portConstraint=eastwest;rotatable=0;" vertex="1" parent="ngEIwyH2J2gvdWESKETZ-6">
          <mxGeometry y="60" width="140" height="30" as="geometry" />
        </mxCell>
        <mxCell id="ngEIwyH2J2gvdWESKETZ-16" value="earth: Int" style="text;strokeColor=none;fillColor=none;align=left;verticalAlign=middle;spacingLeft=4;spacingRight=4;overflow=hidden;points=[[0,0.5],[1,0.5]];portConstraint=eastwest;rotatable=0;" vertex="1" parent="ngEIwyH2J2gvdWESKETZ-6">
          <mxGeometry y="90" width="140" height="30" as="geometry" />
        </mxCell>
        <mxCell id="ngEIwyH2J2gvdWESKETZ-9" value="metal: Int" style="text;strokeColor=none;fillColor=none;align=left;verticalAlign=middle;spacingLeft=4;spacingRight=4;overflow=hidden;points=[[0,0.5],[1,0.5]];portConstraint=eastwest;rotatable=0;" vertex="1" parent="ngEIwyH2J2gvdWESKETZ-6">
          <mxGeometry y="120" width="140" height="30" as="geometry" />
        </mxCell>
        <mxCell id="ngEIwyH2J2gvdWESKETZ-17" value="water: Int" style="text;strokeColor=none;fillColor=none;align=left;verticalAlign=middle;spacingLeft=4;spacingRight=4;overflow=hidden;points=[[0,0.5],[1,0.5]];portConstraint=eastwest;rotatable=0;" vertex="1" parent="ngEIwyH2J2gvdWESKETZ-6">
          <mxGeometry y="150" width="140" height="30" as="geometry" />
        </mxCell>
        <mxCell id="ngEIwyH2J2gvdWESKETZ-19" value="electirc: Int" style="text;strokeColor=none;fillColor=none;align=left;verticalAlign=middle;spacingLeft=4;spacingRight=4;overflow=hidden;points=[[0,0.5],[1,0.5]];portConstraint=eastwest;rotatable=0;" vertex="1" parent="ngEIwyH2J2gvdWESKETZ-6">
          <mxGeometry y="180" width="140" height="30" as="geometry" />
        </mxCell>
        <mxCell id="ngEIwyH2J2gvdWESKETZ-18" value="wind: Int" style="text;strokeColor=none;fillColor=none;align=left;verticalAlign=middle;spacingLeft=4;spacingRight=4;overflow=hidden;points=[[0,0.5],[1,0.5]];portConstraint=eastwest;rotatable=0;" vertex="1" parent="ngEIwyH2J2gvdWESKETZ-6">
          <mxGeometry y="210" width="140" height="30" as="geometry" />
        </mxCell>
        <mxCell id="ngEIwyH2J2gvdWESKETZ-40" value="Use" style="endArrow=open;endSize=12;dashed=1;html=1;rounded=0;entryX=1;entryY=0.5;entryDx=0;entryDy=0;" edge="1" parent="1" source="EJ1EdjsebkWO272Hhb9x-60" target="EJ1EdjsebkWO272Hhb9x-24">
          <mxGeometry width="160" relative="1" as="geometry">
            <mxPoint x="-70" y="-510" as="sourcePoint" />
            <mxPoint x="-10" y="-500" as="targetPoint" />
          </mxGeometry>
        </mxCell>
        <mxCell id="ngEIwyH2J2gvdWESKETZ-48" value="Deck" style="swimlane;fontStyle=0;childLayout=stackLayout;horizontal=1;startSize=26;fillColor=none;horizontalStack=0;resizeParent=1;resizeParentMax=0;resizeLast=0;collapsible=1;marginBottom=0;" vertex="1" parent="1">
          <mxGeometry x="240" y="150" width="140" height="200" as="geometry" />
        </mxCell>
        <mxCell id="ngEIwyH2J2gvdWESKETZ-49" value="deck: ActioCard*" style="text;strokeColor=default;fillColor=none;align=left;verticalAlign=top;spacingLeft=4;spacingRight=4;overflow=hidden;rotatable=0;points=[[0,0.5],[1,0.5]];portConstraint=eastwest;" vertex="1" parent="ngEIwyH2J2gvdWESKETZ-48">
          <mxGeometry y="26" width="140" height="26" as="geometry" />
        </mxCell>
        <mxCell id="ngEIwyH2J2gvdWESKETZ-53" value="pop() : ActionCard" style="text;strokeColor=none;fillColor=none;align=left;verticalAlign=top;spacingLeft=4;spacingRight=4;overflow=hidden;rotatable=0;points=[[0,0.5],[1,0.5]];portConstraint=eastwest;" vertex="1" parent="ngEIwyH2J2gvdWESKETZ-48">
          <mxGeometry y="52" width="140" height="28" as="geometry" />
        </mxCell>
        <mxCell id="ngEIwyH2J2gvdWESKETZ-55" value="shuffle() " style="text;strokeColor=none;fillColor=none;align=left;verticalAlign=top;spacingLeft=4;spacingRight=4;overflow=hidden;rotatable=0;points=[[0,0.5],[1,0.5]];portConstraint=eastwest;" vertex="1" parent="ngEIwyH2J2gvdWESKETZ-48">
          <mxGeometry y="80" width="140" height="30" as="geometry" />
        </mxCell>
        <mxCell id="ngEIwyH2J2gvdWESKETZ-54" value="count() : Int" style="text;strokeColor=none;fillColor=none;align=left;verticalAlign=top;spacingLeft=4;spacingRight=4;overflow=hidden;rotatable=0;points=[[0,0.5],[1,0.5]];portConstraint=eastwest;" vertex="1" parent="ngEIwyH2J2gvdWESKETZ-48">
          <mxGeometry y="110" width="140" height="30" as="geometry" />
        </mxCell>
        <mxCell id="ngEIwyH2J2gvdWESKETZ-57" value="isEmpty() : Boolean" style="text;strokeColor=none;fillColor=none;align=left;verticalAlign=top;spacingLeft=4;spacingRight=4;overflow=hidden;rotatable=0;points=[[0,0.5],[1,0.5]];portConstraint=eastwest;" vertex="1" parent="ngEIwyH2J2gvdWESKETZ-48">
          <mxGeometry y="140" width="140" height="30" as="geometry" />
        </mxCell>
        <mxCell id="ngEIwyH2J2gvdWESKETZ-56" value="addCard(ActionCard)" style="text;strokeColor=none;fillColor=none;align=left;verticalAlign=top;spacingLeft=4;spacingRight=4;overflow=hidden;rotatable=0;points=[[0,0.5],[1,0.5]];portConstraint=eastwest;" vertex="1" parent="ngEIwyH2J2gvdWESKETZ-48">
          <mxGeometry y="170" width="140" height="30" as="geometry" />
        </mxCell>
        <mxCell id="ngEIwyH2J2gvdWESKETZ-61" value="1..&amp;nbsp;" style="endArrow=open;html=1;endSize=12;startArrow=diamondThin;startSize=14;startFill=1;edgeStyle=orthogonalEdgeStyle;align=left;verticalAlign=bottom;rounded=0;exitX=0.5;exitY=0;exitDx=0;exitDy=0;entryX=0;entryY=0.5;entryDx=0;entryDy=0;" edge="1" parent="1" source="EJ1EdjsebkWO272Hhb9x-98" target="EJ1EdjsebkWO272Hhb9x-97">
          <mxGeometry x="-0.8795" y="-15" relative="1" as="geometry">
            <mxPoint x="-100" y="-310" as="sourcePoint" />
            <mxPoint x="180" y="-370" as="targetPoint" />
            <Array as="points">
              <mxPoint x="120" y="-340" />
              <mxPoint x="100" y="-340" />
              <mxPoint x="100" y="-392" />
            </Array>
            <mxPoint as="offset" />
          </mxGeometry>
        </mxCell>
        <mxCell id="ngEIwyH2J2gvdWESKETZ-62" value="1..&amp;nbsp;" style="endArrow=open;html=1;endSize=12;startArrow=diamondThin;startSize=14;startFill=1;edgeStyle=orthogonalEdgeStyle;align=left;verticalAlign=bottom;rounded=0;entryX=1;entryY=0.5;entryDx=0;entryDy=0;" edge="1" parent="1" source="EJ1EdjsebkWO272Hhb9x-97" target="ngEIwyH2J2gvdWESKETZ-49">
          <mxGeometry x="-0.7204" y="15" relative="1" as="geometry">
            <mxPoint x="-100" y="-310" as="sourcePoint" />
            <mxPoint x="60" y="-310" as="targetPoint" />
            <Array as="points">
              <mxPoint x="420" y="-392" />
              <mxPoint x="420" y="189" />
            </Array>
            <mxPoint as="offset" />
          </mxGeometry>
        </mxCell>
        <mxCell id="ngEIwyH2J2gvdWESKETZ-64" value="1" style="endArrow=open;html=1;endSize=12;startArrow=diamondThin;startSize=14;startFill=1;edgeStyle=orthogonalEdgeStyle;align=left;verticalAlign=bottom;rounded=0;entryX=0;entryY=0.5;entryDx=0;entryDy=0;" edge="1" parent="1" source="ngEIwyH2J2gvdWESKETZ-48" target="EJ1EdjsebkWO272Hhb9x-8">
          <mxGeometry x="-1" y="3" relative="1" as="geometry">
            <mxPoint x="-130" y="-110" as="sourcePoint" />
            <mxPoint x="-320" y="-360" as="targetPoint" />
            <Array as="points">
              <mxPoint x="-390" y="170" />
              <mxPoint x="-390" y="-590" />
              <mxPoint x="-190" y="-590" />
            </Array>
          </mxGeometry>
        </mxCell>
        <mxCell id="ngEIwyH2J2gvdWESKETZ-65" value="1.." style="endArrow=open;html=1;endSize=12;startArrow=diamondThin;startSize=14;startFill=1;edgeStyle=orthogonalEdgeStyle;align=left;verticalAlign=bottom;rounded=0;" edge="1" parent="1" source="EJ1EdjsebkWO272Hhb9x-98" target="EJ1EdjsebkWO272Hhb9x-20">
          <mxGeometry x="-0.9277" y="3" relative="1" as="geometry">
            <mxPoint x="110" as="sourcePoint" />
            <mxPoint x="-75" y="-570" as="targetPoint" />
            <Array as="points">
              <mxPoint x="-290" y="110" />
              <mxPoint x="-290" y="-560" />
            </Array>
            <mxPoint as="offset" />
          </mxGeometry>
        </mxCell>
        <mxCell id="ngEIwyH2J2gvdWESKETZ-67" value="Extends" style="endArrow=block;endSize=16;endFill=0;html=1;rounded=0;exitX=0.5;exitY=0;exitDx=0;exitDy=0;" edge="1" parent="1" source="EJ1EdjsebkWO272Hhb9x-1" target="EJ1EdjsebkWO272Hhb9x-5">
          <mxGeometry width="160" relative="1" as="geometry">
            <mxPoint x="-100" y="-410" as="sourcePoint" />
            <mxPoint x="-260" y="-660" as="targetPoint" />
          </mxGeometry>
        </mxCell>
        <mxCell id="ngEIwyH2J2gvdWESKETZ-69" value="Extends" style="endArrow=block;endSize=16;endFill=0;html=1;rounded=0;entryX=0.728;entryY=1.023;entryDx=0;entryDy=0;entryPerimeter=0;" edge="1" parent="1" source="EJ1EdjsebkWO272Hhb9x-14" target="EJ1EdjsebkWO272Hhb9x-41">
          <mxGeometry width="160" relative="1" as="geometry">
            <mxPoint x="-190" y="-223" as="sourcePoint" />
            <mxPoint x="-149.7929936305734" y="-324" as="targetPoint" />
          </mxGeometry>
        </mxCell>
        <mxCell id="ngEIwyH2J2gvdWESKETZ-71" value="CardData" style="swimlane;fontStyle=1;align=center;verticalAlign=top;childLayout=stackLayout;horizontal=1;startSize=26;horizontalStack=0;resizeParent=1;resizeParentMax=0;resizeLast=0;collapsible=1;marginBottom=0;strokeColor=default;" vertex="1" parent="1">
          <mxGeometry x="1010" y="-509" width="192" height="322" as="geometry" />
        </mxCell>
        <mxCell id="ngEIwyH2J2gvdWESKETZ-94" value="list: MergableCard*" style="text;strokeColor=none;fillColor=none;align=left;verticalAlign=top;spacingLeft=4;spacingRight=4;overflow=hidden;rotatable=0;points=[[0,0.5],[1,0.5]];portConstraint=eastwest;" vertex="1" parent="ngEIwyH2J2gvdWESKETZ-71">
          <mxGeometry y="26" width="192" height="26" as="geometry" />
        </mxCell>
        <mxCell id="ngEIwyH2J2gvdWESKETZ-87" value="wood: Int" style="text;strokeColor=none;fillColor=none;align=left;verticalAlign=middle;spacingLeft=4;spacingRight=4;overflow=hidden;points=[[0,0.5],[1,0.5]];portConstraint=eastwest;rotatable=0;" vertex="1" parent="ngEIwyH2J2gvdWESKETZ-71">
          <mxGeometry y="52" width="192" height="30" as="geometry" />
        </mxCell>
        <mxCell id="ngEIwyH2J2gvdWESKETZ-88" value="fire: Int" style="text;strokeColor=none;fillColor=none;align=left;verticalAlign=middle;spacingLeft=4;spacingRight=4;overflow=hidden;points=[[0,0.5],[1,0.5]];portConstraint=eastwest;rotatable=0;" vertex="1" parent="ngEIwyH2J2gvdWESKETZ-71">
          <mxGeometry y="82" width="192" height="30" as="geometry" />
        </mxCell>
        <mxCell id="ngEIwyH2J2gvdWESKETZ-89" value="earth: Int" style="text;strokeColor=none;fillColor=none;align=left;verticalAlign=middle;spacingLeft=4;spacingRight=4;overflow=hidden;points=[[0,0.5],[1,0.5]];portConstraint=eastwest;rotatable=0;" vertex="1" parent="ngEIwyH2J2gvdWESKETZ-71">
          <mxGeometry y="112" width="192" height="30" as="geometry" />
        </mxCell>
        <mxCell id="ngEIwyH2J2gvdWESKETZ-90" value="metal: Int" style="text;strokeColor=none;fillColor=none;align=left;verticalAlign=middle;spacingLeft=4;spacingRight=4;overflow=hidden;points=[[0,0.5],[1,0.5]];portConstraint=eastwest;rotatable=0;" vertex="1" parent="ngEIwyH2J2gvdWESKETZ-71">
          <mxGeometry y="142" width="192" height="30" as="geometry" />
        </mxCell>
        <mxCell id="ngEIwyH2J2gvdWESKETZ-91" value="water: Int" style="text;strokeColor=none;fillColor=none;align=left;verticalAlign=middle;spacingLeft=4;spacingRight=4;overflow=hidden;points=[[0,0.5],[1,0.5]];portConstraint=eastwest;rotatable=0;" vertex="1" parent="ngEIwyH2J2gvdWESKETZ-71">
          <mxGeometry y="172" width="192" height="30" as="geometry" />
        </mxCell>
        <mxCell id="ngEIwyH2J2gvdWESKETZ-92" value="electirc: Int" style="text;strokeColor=none;fillColor=none;align=left;verticalAlign=middle;spacingLeft=4;spacingRight=4;overflow=hidden;points=[[0,0.5],[1,0.5]];portConstraint=eastwest;rotatable=0;" vertex="1" parent="ngEIwyH2J2gvdWESKETZ-71">
          <mxGeometry y="202" width="192" height="30" as="geometry" />
        </mxCell>
        <mxCell id="ngEIwyH2J2gvdWESKETZ-93" value="wind: Int" style="text;strokeColor=none;fillColor=none;align=left;verticalAlign=middle;spacingLeft=4;spacingRight=4;overflow=hidden;points=[[0,0.5],[1,0.5]];portConstraint=eastwest;rotatable=0;" vertex="1" parent="ngEIwyH2J2gvdWESKETZ-71">
          <mxGeometry y="232" width="192" height="30" as="geometry" />
        </mxCell>
        <mxCell id="ngEIwyH2J2gvdWESKETZ-73" value="" style="line;strokeWidth=1;fillColor=none;align=left;verticalAlign=middle;spacingTop=-1;spacingLeft=3;spacingRight=3;rotatable=0;labelPosition=right;points=[];portConstraint=eastwest;" vertex="1" parent="ngEIwyH2J2gvdWESKETZ-71">
          <mxGeometry y="262" width="192" height="8" as="geometry" />
        </mxCell>
        <mxCell id="ngEIwyH2J2gvdWESKETZ-74" value="find(String): MergableCard" style="text;strokeColor=none;fillColor=none;align=left;verticalAlign=top;spacingLeft=4;spacingRight=4;overflow=hidden;rotatable=0;points=[[0,0.5],[1,0.5]];portConstraint=eastwest;" vertex="1" parent="ngEIwyH2J2gvdWESKETZ-71">
          <mxGeometry y="270" width="192" height="26" as="geometry" />
        </mxCell>
        <mxCell id="ngEIwyH2J2gvdWESKETZ-96" value="merge(CardData, ItemCardData)" style="text;strokeColor=none;fillColor=none;align=left;verticalAlign=top;spacingLeft=4;spacingRight=4;overflow=hidden;rotatable=0;points=[[0,0.5],[1,0.5]];portConstraint=eastwest;" vertex="1" parent="ngEIwyH2J2gvdWESKETZ-71">
          <mxGeometry y="296" width="192" height="26" as="geometry" />
        </mxCell>
        <mxCell id="ngEIwyH2J2gvdWESKETZ-75" value="Data&lt;T&gt;" style="swimlane;fontStyle=3;align=center;verticalAlign=top;childLayout=stackLayout;horizontal=1;startSize=26;horizontalStack=0;resizeParent=1;resizeParentMax=0;resizeLast=0;collapsible=1;marginBottom=0;strokeColor=default;" vertex="1" parent="1">
          <mxGeometry x="1202" y="-760" width="160" height="190" as="geometry" />
        </mxCell>
        <mxCell id="ngEIwyH2J2gvdWESKETZ-76" value="list: T" style="text;strokeColor=none;fillColor=none;align=left;verticalAlign=top;spacingLeft=4;spacingRight=4;overflow=hidden;rotatable=0;points=[[0,0.5],[1,0.5]];portConstraint=eastwest;" vertex="1" parent="ngEIwyH2J2gvdWESKETZ-75">
          <mxGeometry y="26" width="160" height="26" as="geometry" />
        </mxCell>
        <mxCell id="ngEIwyH2J2gvdWESKETZ-77" value="" style="line;strokeWidth=1;fillColor=none;align=left;verticalAlign=middle;spacingTop=-1;spacingLeft=3;spacingRight=3;rotatable=0;labelPosition=right;points=[];portConstraint=eastwest;" vertex="1" parent="ngEIwyH2J2gvdWESKETZ-75">
          <mxGeometry y="52" width="160" height="8" as="geometry" />
        </mxCell>
        <mxCell id="ngEIwyH2J2gvdWESKETZ-79" value="add(T)&#xa;" style="text;strokeColor=none;fillColor=none;align=left;verticalAlign=top;spacingLeft=4;spacingRight=4;overflow=hidden;rotatable=0;points=[[0,0.5],[1,0.5]];portConstraint=eastwest;" vertex="1" parent="ngEIwyH2J2gvdWESKETZ-75">
          <mxGeometry y="60" width="160" height="26" as="geometry" />
        </mxCell>
        <mxCell id="ngEIwyH2J2gvdWESKETZ-80" value="remove(T)" style="text;strokeColor=none;fillColor=none;align=left;verticalAlign=top;spacingLeft=4;spacingRight=4;overflow=hidden;rotatable=0;points=[[0,0.5],[1,0.5]];portConstraint=eastwest;" vertex="1" parent="ngEIwyH2J2gvdWESKETZ-75">
          <mxGeometry y="86" width="160" height="26" as="geometry" />
        </mxCell>
        <mxCell id="ngEIwyH2J2gvdWESKETZ-78" value="append(Data&lt;T&gt;)" style="text;strokeColor=none;fillColor=none;align=left;verticalAlign=top;spacingLeft=4;spacingRight=4;overflow=hidden;rotatable=0;points=[[0,0.5],[1,0.5]];portConstraint=eastwest;" vertex="1" parent="ngEIwyH2J2gvdWESKETZ-75">
          <mxGeometry y="112" width="160" height="26" as="geometry" />
        </mxCell>
        <mxCell id="ngEIwyH2J2gvdWESKETZ-81" value="getStored() : T*" style="text;strokeColor=none;fillColor=none;align=left;verticalAlign=top;spacingLeft=4;spacingRight=4;overflow=hidden;rotatable=0;points=[[0,0.5],[1,0.5]];portConstraint=eastwest;" vertex="1" parent="ngEIwyH2J2gvdWESKETZ-75">
          <mxGeometry y="138" width="160" height="26" as="geometry" />
        </mxCell>
        <mxCell id="ngEIwyH2J2gvdWESKETZ-82" value="randomSelect(): T" style="text;strokeColor=none;fillColor=none;align=left;verticalAlign=top;spacingLeft=4;spacingRight=4;overflow=hidden;rotatable=0;points=[[0,0.5],[1,0.5]];portConstraint=eastwest;" vertex="1" parent="ngEIwyH2J2gvdWESKETZ-75">
          <mxGeometry y="164" width="160" height="26" as="geometry" />
        </mxCell>
        <mxCell id="ngEIwyH2J2gvdWESKETZ-83" value="Extends" style="endArrow=block;endSize=16;endFill=0;html=1;rounded=0;" edge="1" parent="1" source="ngEIwyH2J2gvdWESKETZ-71" target="ngEIwyH2J2gvdWESKETZ-75">
          <mxGeometry width="160" relative="1" as="geometry">
            <mxPoint x="1140" y="-670" as="sourcePoint" />
            <mxPoint x="1300" y="-670" as="targetPoint" />
          </mxGeometry>
        </mxCell>
        <mxCell id="ngEIwyH2J2gvdWESKETZ-85" value="Battle" style="text;html=1;align=center;verticalAlign=middle;resizable=0;points=[];autosize=1;strokeColor=none;fillColor=none;" vertex="1" parent="1">
          <mxGeometry x="65" y="-900" width="50" height="30" as="geometry" />
        </mxCell>
        <mxCell id="ngEIwyH2J2gvdWESKETZ-95" value="1.." style="endArrow=open;html=1;endSize=12;startArrow=diamondThin;startSize=14;startFill=1;edgeStyle=orthogonalEdgeStyle;align=left;verticalAlign=bottom;rounded=0;" edge="1" parent="1" source="ngEIwyH2J2gvdWESKETZ-6" target="ngEIwyH2J2gvdWESKETZ-94">
          <mxGeometry x="-0.8182" y="10" relative="1" as="geometry">
            <mxPoint x="880" y="-490" as="sourcePoint" />
            <mxPoint x="1110" y="-440" as="targetPoint" />
            <Array as="points">
              <mxPoint x="920" y="-470" />
              <mxPoint x="920" y="-470" />
            </Array>
            <mxPoint as="offset" />
          </mxGeometry>
        </mxCell>
        <mxCell id="ngEIwyH2J2gvdWESKETZ-97" value="ItemCardData" style="swimlane;fontStyle=1;align=center;verticalAlign=top;childLayout=stackLayout;horizontal=1;startSize=26;horizontalStack=0;resizeParent=1;resizeParentMax=0;resizeLast=0;collapsible=1;marginBottom=0;strokeColor=default;" vertex="1" parent="1">
          <mxGeometry x="910" y="-100" width="200" height="60" as="geometry" />
        </mxCell>
        <mxCell id="ngEIwyH2J2gvdWESKETZ-106" value="" style="line;strokeWidth=1;fillColor=none;align=left;verticalAlign=middle;spacingTop=-1;spacingLeft=3;spacingRight=3;rotatable=0;labelPosition=right;points=[];portConstraint=eastwest;" vertex="1" parent="ngEIwyH2J2gvdWESKETZ-97">
          <mxGeometry y="26" width="200" height="8" as="geometry" />
        </mxCell>
        <mxCell id="ngEIwyH2J2gvdWESKETZ-108" value="merge(CardData): ItemCard?" style="text;strokeColor=none;fillColor=none;align=left;verticalAlign=top;spacingLeft=4;spacingRight=4;overflow=hidden;rotatable=0;points=[[0,0.5],[1,0.5]];portConstraint=eastwest;" vertex="1" parent="ngEIwyH2J2gvdWESKETZ-97">
          <mxGeometry y="34" width="200" height="26" as="geometry" />
        </mxCell>
        <mxCell id="ngEIwyH2J2gvdWESKETZ-109" value="Extends" style="endArrow=block;endSize=16;endFill=0;html=1;rounded=0;exitX=0.5;exitY=0;exitDx=0;exitDy=0;" edge="1" parent="1" source="EJ1EdjsebkWO272Hhb9x-73" target="ngEIwyH2J2gvdWESKETZ-18">
          <mxGeometry width="160" relative="1" as="geometry">
            <mxPoint x="750" y="-150" as="sourcePoint" />
            <mxPoint x="920" y="-150" as="targetPoint" />
          </mxGeometry>
        </mxCell>
        <mxCell id="ngEIwyH2J2gvdWESKETZ-110" value="Extends" style="endArrow=block;endSize=16;endFill=0;html=1;rounded=0;exitX=0.5;exitY=0;exitDx=0;exitDy=0;" edge="1" parent="1" source="EJ1EdjsebkWO272Hhb9x-78" target="ngEIwyH2J2gvdWESKETZ-18">
          <mxGeometry width="160" relative="1" as="geometry">
            <mxPoint x="620" y="-90" as="sourcePoint" />
            <mxPoint x="730" y="-260" as="targetPoint" />
          </mxGeometry>
        </mxCell>
        <mxCell id="ngEIwyH2J2gvdWESKETZ-112" value="MaterialCardData" style="swimlane;fontStyle=1;align=center;verticalAlign=top;childLayout=stackLayout;horizontal=1;startSize=26;horizontalStack=0;resizeParent=1;resizeParentMax=0;resizeLast=0;collapsible=1;marginBottom=0;strokeColor=default;" vertex="1" parent="1">
          <mxGeometry x="1150" y="-100" width="230" height="60" as="geometry" />
        </mxCell>
        <mxCell id="ngEIwyH2J2gvdWESKETZ-114" value="" style="line;strokeWidth=1;fillColor=none;align=left;verticalAlign=middle;spacingTop=-1;spacingLeft=3;spacingRight=3;rotatable=0;labelPosition=right;points=[];portConstraint=eastwest;" vertex="1" parent="ngEIwyH2J2gvdWESKETZ-112">
          <mxGeometry y="26" width="230" height="8" as="geometry" />
        </mxCell>
        <mxCell id="ngEIwyH2J2gvdWESKETZ-115" value="getBelowLevel(level: Int): MaterialCard?" style="text;strokeColor=none;fillColor=none;align=left;verticalAlign=top;spacingLeft=4;spacingRight=4;overflow=hidden;rotatable=0;points=[[0,0.5],[1,0.5]];portConstraint=eastwest;" vertex="1" parent="ngEIwyH2J2gvdWESKETZ-112">
          <mxGeometry y="34" width="230" height="26" as="geometry" />
        </mxCell>
        <mxCell id="ngEIwyH2J2gvdWESKETZ-117" value="1" style="endArrow=open;html=1;endSize=12;startArrow=diamondThin;startSize=14;startFill=1;edgeStyle=orthogonalEdgeStyle;align=left;verticalAlign=bottom;rounded=0;" edge="1" parent="1" source="ngEIwyH2J2gvdWESKETZ-48" target="EJ1EdjsebkWO272Hhb9x-75">
          <mxGeometry x="-1" y="3" relative="1" as="geometry">
            <mxPoint x="170" y="-150" as="sourcePoint" />
            <mxPoint x="330" y="-150" as="targetPoint" />
            <Array as="points">
              <mxPoint x="450" y="260" />
              <mxPoint x="450" y="-61" />
            </Array>
          </mxGeometry>
        </mxCell>
        <mxCell id="ngEIwyH2J2gvdWESKETZ-118" value="Extends" style="endArrow=block;endSize=16;endFill=0;html=1;rounded=0;entryX=0.357;entryY=0.996;entryDx=0;entryDy=0;entryPerimeter=0;" edge="1" parent="1" source="ngEIwyH2J2gvdWESKETZ-97" target="ngEIwyH2J2gvdWESKETZ-96">
          <mxGeometry width="160" relative="1" as="geometry">
            <mxPoint x="620" y="-90" as="sourcePoint" />
            <mxPoint x="730.2173913043475" y="-259" as="targetPoint" />
          </mxGeometry>
        </mxCell>
        <mxCell id="ngEIwyH2J2gvdWESKETZ-119" value="Extends" style="endArrow=block;endSize=16;endFill=0;html=1;rounded=0;" edge="1" parent="1" source="ngEIwyH2J2gvdWESKETZ-112" target="ngEIwyH2J2gvdWESKETZ-96">
          <mxGeometry width="160" relative="1" as="geometry">
            <mxPoint x="1037.559775925673" y="-90" as="sourcePoint" />
            <mxPoint x="1088.5439999999999" y="-177.10399999999981" as="targetPoint" />
          </mxGeometry>
        </mxCell>
        <mxCell id="ngEIwyH2J2gvdWESKETZ-120" value="MonsterData" style="swimlane;fontStyle=1;align=center;verticalAlign=top;childLayout=stackLayout;horizontal=1;startSize=26;horizontalStack=0;resizeParent=1;resizeParentMax=0;resizeLast=0;collapsible=1;marginBottom=0;strokeColor=default;" vertex="1" parent="1">
          <mxGeometry x="1320" y="-509" width="230" height="86" as="geometry" />
        </mxCell>
        <mxCell id="ngEIwyH2J2gvdWESKETZ-125" value="list: Monster*" style="text;strokeColor=none;fillColor=none;align=left;verticalAlign=top;spacingLeft=4;spacingRight=4;overflow=hidden;rotatable=0;points=[[0,0.5],[1,0.5]];portConstraint=eastwest;" vertex="1" parent="ngEIwyH2J2gvdWESKETZ-120">
          <mxGeometry y="26" width="230" height="26" as="geometry" />
        </mxCell>
        <mxCell id="ngEIwyH2J2gvdWESKETZ-121" value="" style="line;strokeWidth=1;fillColor=none;align=left;verticalAlign=middle;spacingTop=-1;spacingLeft=3;spacingRight=3;rotatable=0;labelPosition=right;points=[];portConstraint=eastwest;" vertex="1" parent="ngEIwyH2J2gvdWESKETZ-120">
          <mxGeometry y="52" width="230" height="8" as="geometry" />
        </mxCell>
        <mxCell id="ngEIwyH2J2gvdWESKETZ-122" value="getMonster(Int) : Monster?" style="text;strokeColor=none;fillColor=none;align=left;verticalAlign=top;spacingLeft=4;spacingRight=4;overflow=hidden;rotatable=0;points=[[0,0.5],[1,0.5]];portConstraint=eastwest;" vertex="1" parent="ngEIwyH2J2gvdWESKETZ-120">
          <mxGeometry y="60" width="230" height="26" as="geometry" />
        </mxCell>
        <mxCell id="ngEIwyH2J2gvdWESKETZ-123" value="Extends" style="endArrow=block;endSize=16;endFill=0;html=1;rounded=0;entryX=0.799;entryY=1.104;entryDx=0;entryDy=0;entryPerimeter=0;" edge="1" parent="1" source="ngEIwyH2J2gvdWESKETZ-120" target="ngEIwyH2J2gvdWESKETZ-82">
          <mxGeometry width="160" relative="1" as="geometry">
            <mxPoint x="1200" y="-550" as="sourcePoint" />
            <mxPoint x="1360" y="-550" as="targetPoint" />
          </mxGeometry>
        </mxCell>
        <mxCell id="ngEIwyH2J2gvdWESKETZ-126" value="Monster" style="swimlane;fontStyle=1;align=center;verticalAlign=top;childLayout=stackLayout;horizontal=1;startSize=26;horizontalStack=0;resizeParent=1;resizeParentMax=0;resizeLast=0;collapsible=1;marginBottom=0;strokeColor=default;" vertex="1" parent="1">
          <mxGeometry x="1708" y="-512.5" width="230" height="242" as="geometry" />
        </mxCell>
        <mxCell id="ngEIwyH2J2gvdWESKETZ-127" value="images: String*" style="text;strokeColor=none;fillColor=none;align=left;verticalAlign=top;spacingLeft=4;spacingRight=4;overflow=hidden;rotatable=0;points=[[0,0.5],[1,0.5]];portConstraint=eastwest;" vertex="1" parent="ngEIwyH2J2gvdWESKETZ-126">
          <mxGeometry y="26" width="230" height="26" as="geometry" />
        </mxCell>
        <mxCell id="ngEIwyH2J2gvdWESKETZ-131" value="level: Int" style="text;strokeColor=none;fillColor=none;align=left;verticalAlign=top;spacingLeft=4;spacingRight=4;overflow=hidden;rotatable=0;points=[[0,0.5],[1,0.5]];portConstraint=eastwest;" vertex="1" parent="ngEIwyH2J2gvdWESKETZ-126">
          <mxGeometry y="52" width="230" height="26" as="geometry" />
        </mxCell>
        <mxCell id="ngEIwyH2J2gvdWESKETZ-133" value="charName: String" style="text;strokeColor=none;fillColor=none;align=left;verticalAlign=top;spacingLeft=4;spacingRight=4;overflow=hidden;rotatable=0;points=[[0,0.5],[1,0.5]];portConstraint=eastwest;" vertex="1" parent="ngEIwyH2J2gvdWESKETZ-126">
          <mxGeometry y="78" width="230" height="26" as="geometry" />
        </mxCell>
        <mxCell id="ngEIwyH2J2gvdWESKETZ-134" value="reward: Map&lt;MaterialCard, Int&gt;" style="text;strokeColor=none;fillColor=none;align=left;verticalAlign=top;spacingLeft=4;spacingRight=4;overflow=hidden;rotatable=0;points=[[0,0.5],[1,0.5]];portConstraint=eastwest;" vertex="1" parent="ngEIwyH2J2gvdWESKETZ-126">
          <mxGeometry y="104" width="230" height="26" as="geometry" />
        </mxCell>
        <mxCell id="ngEIwyH2J2gvdWESKETZ-132" value="actions: Deck" style="text;strokeColor=none;fillColor=none;align=left;verticalAlign=top;spacingLeft=4;spacingRight=4;overflow=hidden;rotatable=0;points=[[0,0.5],[1,0.5]];portConstraint=eastwest;" vertex="1" parent="ngEIwyH2J2gvdWESKETZ-126">
          <mxGeometry y="130" width="230" height="26" as="geometry" />
        </mxCell>
        <mxCell id="ngEIwyH2J2gvdWESKETZ-130" value="images: String*" style="text;strokeColor=none;fillColor=none;align=left;verticalAlign=top;spacingLeft=4;spacingRight=4;overflow=hidden;rotatable=0;points=[[0,0.5],[1,0.5]];portConstraint=eastwest;" vertex="1" parent="ngEIwyH2J2gvdWESKETZ-126">
          <mxGeometry y="156" width="230" height="26" as="geometry" />
        </mxCell>
        <mxCell id="ngEIwyH2J2gvdWESKETZ-128" value="" style="line;strokeWidth=1;fillColor=none;align=left;verticalAlign=middle;spacingTop=-1;spacingLeft=3;spacingRight=3;rotatable=0;labelPosition=right;points=[];portConstraint=eastwest;" vertex="1" parent="ngEIwyH2J2gvdWESKETZ-126">
          <mxGeometry y="182" width="230" height="8" as="geometry" />
        </mxCell>
        <mxCell id="ngEIwyH2J2gvdWESKETZ-129" value="getDeck (Int): Deck" style="text;strokeColor=none;fillColor=none;align=left;verticalAlign=top;spacingLeft=4;spacingRight=4;overflow=hidden;rotatable=0;points=[[0,0.5],[1,0.5]];portConstraint=eastwest;" vertex="1" parent="ngEIwyH2J2gvdWESKETZ-126">
          <mxGeometry y="190" width="230" height="26" as="geometry" />
        </mxCell>
        <mxCell id="ngEIwyH2J2gvdWESKETZ-135" value="getHP (Int): Int" style="text;strokeColor=none;fillColor=none;align=left;verticalAlign=top;spacingLeft=4;spacingRight=4;overflow=hidden;rotatable=0;points=[[0,0.5],[1,0.5]];portConstraint=eastwest;" vertex="1" parent="ngEIwyH2J2gvdWESKETZ-126">
          <mxGeometry y="216" width="230" height="26" as="geometry" />
        </mxCell>
        <mxCell id="ngEIwyH2J2gvdWESKETZ-136" value="1.." style="endArrow=open;html=1;endSize=12;startArrow=diamondThin;startSize=14;startFill=0;edgeStyle=orthogonalEdgeStyle;align=left;verticalAlign=bottom;rounded=0;entryX=0;entryY=0.5;entryDx=0;entryDy=0;" edge="1" parent="1" source="EJ1EdjsebkWO272Hhb9x-78" target="ngEIwyH2J2gvdWESKETZ-134">
          <mxGeometry x="-0.8912" y="10" relative="1" as="geometry">
            <mxPoint x="820" y="-240" as="sourcePoint" />
            <mxPoint x="980" y="-240" as="targetPoint" />
            <Array as="points">
              <mxPoint x="800" />
              <mxPoint x="1520" />
              <mxPoint x="1520" y="-393" />
            </Array>
            <mxPoint as="offset" />
          </mxGeometry>
        </mxCell>
        <mxCell id="ngEIwyH2J2gvdWESKETZ-137" value="1" style="endArrow=open;html=1;endSize=12;startArrow=diamondThin;startSize=14;startFill=1;edgeStyle=orthogonalEdgeStyle;align=left;verticalAlign=bottom;rounded=0;" edge="1" parent="1" source="ngEIwyH2J2gvdWESKETZ-48" target="ngEIwyH2J2gvdWESKETZ-132">
          <mxGeometry x="-1" y="3" relative="1" as="geometry">
            <mxPoint x="280" y="140" as="sourcePoint" />
            <mxPoint x="1600" y="-310" as="targetPoint" />
            <Array as="points">
              <mxPoint x="1560" y="290" />
              <mxPoint x="1560" y="-367" />
            </Array>
          </mxGeometry>
        </mxCell>
        <mxCell id="ngEIwyH2J2gvdWESKETZ-138" value="DungeonMap" style="swimlane;fontStyle=1;align=center;verticalAlign=top;childLayout=stackLayout;horizontal=1;startSize=26;horizontalStack=0;resizeParent=1;resizeParentMax=0;resizeLast=0;collapsible=1;marginBottom=0;strokeColor=default;" vertex="1" parent="1">
          <mxGeometry x="2258" y="-512.5" width="170" height="112" as="geometry" />
        </mxCell>
        <mxCell id="ngEIwyH2J2gvdWESKETZ-139" value="map: Event**" style="text;strokeColor=none;fillColor=none;align=left;verticalAlign=top;spacingLeft=4;spacingRight=4;overflow=hidden;rotatable=0;points=[[0,0.5],[1,0.5]];portConstraint=eastwest;" vertex="1" parent="ngEIwyH2J2gvdWESKETZ-138">
          <mxGeometry y="26" width="170" height="26" as="geometry" />
        </mxCell>
        <mxCell id="ngEIwyH2J2gvdWESKETZ-140" value="stepsLeft : Int" style="text;strokeColor=none;fillColor=none;align=left;verticalAlign=top;spacingLeft=4;spacingRight=4;overflow=hidden;rotatable=0;points=[[0,0.5],[1,0.5]];portConstraint=eastwest;" vertex="1" parent="ngEIwyH2J2gvdWESKETZ-138">
          <mxGeometry y="52" width="170" height="26" as="geometry" />
        </mxCell>
        <mxCell id="ngEIwyH2J2gvdWESKETZ-145" value="" style="line;strokeWidth=1;fillColor=none;align=left;verticalAlign=middle;spacingTop=-1;spacingLeft=3;spacingRight=3;rotatable=0;labelPosition=right;points=[];portConstraint=eastwest;" vertex="1" parent="ngEIwyH2J2gvdWESKETZ-138">
          <mxGeometry y="78" width="170" height="8" as="geometry" />
        </mxCell>
        <mxCell id="ngEIwyH2J2gvdWESKETZ-146" value="go(Int, Int): Int" style="text;strokeColor=none;fillColor=none;align=left;verticalAlign=top;spacingLeft=4;spacingRight=4;overflow=hidden;rotatable=0;points=[[0,0.5],[1,0.5]];portConstraint=eastwest;" vertex="1" parent="ngEIwyH2J2gvdWESKETZ-138">
          <mxGeometry y="86" width="170" height="26" as="geometry" />
        </mxCell>
        <mxCell id="ngEIwyH2J2gvdWESKETZ-148" value="Event" style="swimlane;fontStyle=1;align=center;verticalAlign=top;childLayout=stackLayout;horizontal=1;startSize=26;horizontalStack=0;resizeParent=1;resizeParentMax=0;resizeLast=0;collapsible=1;marginBottom=0;strokeColor=default;" vertex="1" parent="1">
          <mxGeometry x="1988" y="-425.5" width="230" height="138" as="geometry" />
        </mxCell>
        <mxCell id="ngEIwyH2J2gvdWESKETZ-161" value="backImg: String" style="text;strokeColor=none;fillColor=none;align=left;verticalAlign=top;spacingLeft=4;spacingRight=4;overflow=hidden;rotatable=0;points=[[0,0.5],[1,0.5]];portConstraint=eastwest;" vertex="1" parent="ngEIwyH2J2gvdWESKETZ-148">
          <mxGeometry y="26" width="230" height="26" as="geometry" />
        </mxCell>
        <mxCell id="ngEIwyH2J2gvdWESKETZ-162" value="frontImg: String" style="text;strokeColor=none;fillColor=none;align=left;verticalAlign=top;spacingLeft=4;spacingRight=4;overflow=hidden;rotatable=0;points=[[0,0.5],[1,0.5]];portConstraint=eastwest;" vertex="1" parent="ngEIwyH2J2gvdWESKETZ-148">
          <mxGeometry y="52" width="230" height="26" as="geometry" />
        </mxCell>
        <mxCell id="ngEIwyH2J2gvdWESKETZ-152" value="isFlipped(): Boolean" style="text;strokeColor=none;fillColor=none;align=left;verticalAlign=top;spacingLeft=4;spacingRight=4;overflow=hidden;rotatable=0;points=[[0,0.5],[1,0.5]];portConstraint=eastwest;" vertex="1" parent="ngEIwyH2J2gvdWESKETZ-148">
          <mxGeometry y="78" width="230" height="26" as="geometry" />
        </mxCell>
        <mxCell id="ngEIwyH2J2gvdWESKETZ-151" value="" style="line;strokeWidth=1;fillColor=none;align=left;verticalAlign=middle;spacingTop=-1;spacingLeft=3;spacingRight=3;rotatable=0;labelPosition=right;points=[];portConstraint=eastwest;" vertex="1" parent="ngEIwyH2J2gvdWESKETZ-148">
          <mxGeometry y="104" width="230" height="8" as="geometry" />
        </mxCell>
        <mxCell id="ngEIwyH2J2gvdWESKETZ-150" value="trigger() : Int" style="text;strokeColor=none;fillColor=none;align=left;verticalAlign=top;spacingLeft=4;spacingRight=4;overflow=hidden;rotatable=0;points=[[0,0.5],[1,0.5]];portConstraint=eastwest;" vertex="1" parent="ngEIwyH2J2gvdWESKETZ-148">
          <mxGeometry y="112" width="230" height="26" as="geometry" />
        </mxCell>
        <mxCell id="ngEIwyH2J2gvdWESKETZ-154" value="21" style="endArrow=open;html=1;endSize=12;startArrow=diamondThin;startSize=14;startFill=0;edgeStyle=orthogonalEdgeStyle;align=left;verticalAlign=bottom;rounded=0;" edge="1" parent="1" source="ngEIwyH2J2gvdWESKETZ-148" target="ngEIwyH2J2gvdWESKETZ-139">
          <mxGeometry x="-0.9372" y="-15" relative="1" as="geometry">
            <mxPoint x="1948" y="-252.5" as="sourcePoint" />
            <mxPoint x="2098" y="-242.5" as="targetPoint" />
            <mxPoint as="offset" />
          </mxGeometry>
        </mxCell>
        <mxCell id="ngEIwyH2J2gvdWESKETZ-155" value="CollectEvent" style="swimlane;fontStyle=1;align=center;verticalAlign=top;childLayout=stackLayout;horizontal=1;startSize=26;horizontalStack=0;resizeParent=1;resizeParentMax=0;resizeLast=0;collapsible=1;marginBottom=0;strokeColor=default;" vertex="1" parent="1">
          <mxGeometry x="2138" y="-243.5" width="170" height="60" as="geometry" />
        </mxCell>
        <mxCell id="ngEIwyH2J2gvdWESKETZ-160" value="material: MaterialCard" style="text;strokeColor=none;fillColor=none;align=left;verticalAlign=top;spacingLeft=4;spacingRight=4;overflow=hidden;rotatable=0;points=[[0,0.5],[1,0.5]];portConstraint=eastwest;" vertex="1" parent="ngEIwyH2J2gvdWESKETZ-155">
          <mxGeometry y="26" width="170" height="26" as="geometry" />
        </mxCell>
        <mxCell id="ngEIwyH2J2gvdWESKETZ-158" value="" style="line;strokeWidth=1;fillColor=none;align=left;verticalAlign=middle;spacingTop=-1;spacingLeft=3;spacingRight=3;rotatable=0;labelPosition=right;points=[];portConstraint=eastwest;" vertex="1" parent="ngEIwyH2J2gvdWESKETZ-155">
          <mxGeometry y="52" width="170" height="8" as="geometry" />
        </mxCell>
        <mxCell id="ngEIwyH2J2gvdWESKETZ-163" value="Extends" style="endArrow=block;endSize=16;endFill=0;html=1;rounded=0;exitX=0.441;exitY=0.028;exitDx=0;exitDy=0;exitPerimeter=0;" edge="1" parent="1" source="ngEIwyH2J2gvdWESKETZ-155" target="ngEIwyH2J2gvdWESKETZ-148">
          <mxGeometry width="160" relative="1" as="geometry">
            <mxPoint x="1938" y="-242.5" as="sourcePoint" />
            <mxPoint x="2098" y="-242.5" as="targetPoint" />
          </mxGeometry>
        </mxCell>
        <mxCell id="ngEIwyH2J2gvdWESKETZ-164" value="CollectEvent" style="swimlane;fontStyle=1;align=center;verticalAlign=top;childLayout=stackLayout;horizontal=1;startSize=26;horizontalStack=0;resizeParent=1;resizeParentMax=0;resizeLast=0;collapsible=1;marginBottom=0;strokeColor=default;" vertex="1" parent="1">
          <mxGeometry x="1918" y="-243.5" width="170" height="60" as="geometry" />
        </mxCell>
        <mxCell id="ngEIwyH2J2gvdWESKETZ-165" value="monster: Monster" style="text;strokeColor=none;fillColor=none;align=left;verticalAlign=top;spacingLeft=4;spacingRight=4;overflow=hidden;rotatable=0;points=[[0,0.5],[1,0.5]];portConstraint=eastwest;" vertex="1" parent="ngEIwyH2J2gvdWESKETZ-164">
          <mxGeometry y="26" width="170" height="26" as="geometry" />
        </mxCell>
        <mxCell id="ngEIwyH2J2gvdWESKETZ-166" value="" style="line;strokeWidth=1;fillColor=none;align=left;verticalAlign=middle;spacingTop=-1;spacingLeft=3;spacingRight=3;rotatable=0;labelPosition=right;points=[];portConstraint=eastwest;" vertex="1" parent="ngEIwyH2J2gvdWESKETZ-164">
          <mxGeometry y="52" width="170" height="8" as="geometry" />
        </mxCell>
        <mxCell id="ngEIwyH2J2gvdWESKETZ-167" value="Extends" style="endArrow=block;endSize=16;endFill=0;html=1;rounded=0;exitX=0.75;exitY=0;exitDx=0;exitDy=0;" edge="1" parent="1" source="ngEIwyH2J2gvdWESKETZ-164" target="ngEIwyH2J2gvdWESKETZ-148">
          <mxGeometry width="160" relative="1" as="geometry">
            <mxPoint x="1959.4299999999998" y="-210.82000000000016" as="sourcePoint" />
            <mxPoint x="2034.902048938679" y="-277.4999999999998" as="targetPoint" />
          </mxGeometry>
        </mxCell>
        <mxCell id="ngEIwyH2J2gvdWESKETZ-168" value="1" style="endArrow=open;html=1;endSize=12;startArrow=diamondThin;startSize=14;startFill=0;edgeStyle=orthogonalEdgeStyle;align=left;verticalAlign=bottom;rounded=0;" edge="1" parent="1" source="EJ1EdjsebkWO272Hhb9x-78" target="ngEIwyH2J2gvdWESKETZ-160">
          <mxGeometry x="-0.9476" y="10" relative="1" as="geometry">
            <mxPoint x="810" y="-37.999999999999545" as="sourcePoint" />
            <mxPoint x="1620" y="-383.0000000000002" as="targetPoint" />
            <Array as="points">
              <mxPoint x="760" y="100" />
              <mxPoint x="2120" y="100" />
              <mxPoint x="2120" y="-202" />
              <mxPoint x="2235" y="-202" />
            </Array>
            <mxPoint as="offset" />
          </mxGeometry>
        </mxCell>
        <mxCell id="ngEIwyH2J2gvdWESKETZ-169" value="1" style="endArrow=open;html=1;endSize=12;startArrow=diamondThin;startSize=14;startFill=1;edgeStyle=orthogonalEdgeStyle;align=left;verticalAlign=bottom;rounded=0;entryX=0;entryY=0.5;entryDx=0;entryDy=0;" edge="1" parent="1" source="ngEIwyH2J2gvdWESKETZ-126" target="ngEIwyH2J2gvdWESKETZ-165">
          <mxGeometry x="-1" y="3" relative="1" as="geometry">
            <mxPoint x="1888" y="-242.5" as="sourcePoint" />
            <mxPoint x="1888" y="-192.5" as="targetPoint" />
            <Array as="points">
              <mxPoint x="1788" y="-204.5" />
            </Array>
          </mxGeometry>
        </mxCell>
      </root>
    </mxGraphModel>
  </diagram>
</mxfile>
